#Comment line ignore any data following # character 
#Hierarchical Translation and Rotation (.htr) file 
[Header]	
#Header keywords are followed by a single value 
FileType HTR		#Single word string
DataType HTRS		#Translation followed by rotation and scale data
FileVersion 1		#integer
NumSegments 64		#integer
NumFrames 3		#integer
DataFrameRate 30		#integer, data frame rate in this file
EulerRotationOrder ZYX
CalibrationUnits mm
RotationUnits Degrees
GlobalAxisofGravity Y
BoneLengthAxis Y
ScaleFactor 1.00
[SegmentNames&Hierarchy]
#CHILD	PARENT
Pinger_Root GLOBAL
Pelvis Pinger_Root
L_Hip Pelvis
R_Hip Pelvis
Rear_Leg01 Pelvis
Spine1 Pelvis
L_Leg01 L_Hip
L_Leg02 L_Leg01
L_Leg03 L_Leg02
L_Foot L_Leg03
L_Toe1_01 L_Foot
L_Toe2_01 L_Foot
L_Toe3_01 L_Foot
planeAlignerLeft L_Foot
L_Toe1_02 L_Toe1_01
L_Toe1_03 L_Toe1_02
L_Toe2_02 L_Toe2_01
L_Toe2_03 L_Toe2_02
L_Toe3_02 L_Toe3_01
L_Toe3_03 L_Toe3_02
planeLockWeightLeft planeAlignerLeft
R_Leg01 R_Hip
R_Leg02 R_Leg01
R_Leg03 R_Leg02
R_Foot R_Leg03
planeAlignerRight R_Foot
R_Toe1_01 R_Foot
R_Toe2_01 R_Foot
R_Toe3_01 R_Foot
planeLockWeightRight planeAlignerRight
R_Toe1_02 R_Toe1_01
R_Toe1_03 R_Toe1_02
R_Toe2_02 R_Toe2_01
R_Toe2_03 R_Toe2_02
R_Toe3_02 R_Toe3_01
R_Toe3_03 R_Toe3_02
Rear_Leg02 Rear_Leg01
Rear_Leg03 Rear_Leg02
Rear_Leg04 Rear_Leg03
Rear_Foot Rear_Leg04
planeAlignerCenter Rear_Foot
Rear_Toe1_01 Rear_Foot
Rear_Toe2_01 Rear_Foot
Rear_Toe3_01 Rear_Foot
planeLockWeightCenter planeAlignerCenter
Rear_Toe1_02 Rear_Toe1_01
Rear_Toe1_03 Rear_Toe1_02
Rear_Toe2_02 Rear_Toe2_01
Rear_Toe2_03 Rear_Toe2_02
Rear_Toe3_02 Rear_Toe3_01
Rear_Toe3_03 Rear_Toe3_02
Back_Bone Spine1
Head Spine1
Motor_Bone Back_Bone
Ping_Mechanism Back_Bone
BN_LookIK Head
bottomMouth Head
L_Mouth01 Head
L_mouthFront Head
mouthGun Head
R_Mouth01 Head
R_mouthFront Head
TopMouth Head
weapon_bone Head
[BasePosition]
#SegmentName Tx, Ty, Tz, Rx, Ry, Rz, BoneLength
Pinger_Root 0.000000 0.000000 0.000000 -90.000000 0.000000 0.000000 10.000000 
Pelvis 0.000000 0.000000 0.000000 0.000000 0.000000 0.000000 10.000000 
L_Hip 0.000000 0.000000 0.000000 0.000000 0.000000 0.000000 10.000000 
R_Hip 0.000000 0.000000 0.000000 0.000000 0.000000 0.000000 10.000000 
Rear_Leg01 0.000000 0.000000 0.000000 0.000000 0.000000 0.000000 10.000000 
Spine1 0.000000 0.000000 0.000000 0.000000 0.000000 0.000000 10.000000 
L_Leg01 0.000000 0.000000 0.000000 0.000000 0.000000 0.000000 10.000000 
L_Leg02 0.000000 0.000000 0.000000 0.000000 0.000000 0.000000 10.000000 
L_Leg03 0.000000 0.000000 0.000000 0.000000 0.000000 0.000000 10.000000 
L_Foot 0.000000 0.000000 0.000000 0.000000 0.000000 0.000000 10.000000 
L_Toe1_01 0.000000 0.000000 0.000000 0.000000 0.000000 0.000000 10.000000 
L_Toe2_01 0.000000 0.000000 0.000000 0.000000 0.000000 0.000000 10.000000 
L_Toe3_01 0.000000 0.000000 0.000000 0.000000 0.000000 0.000000 10.000000 
planeAlignerLeft 0.000000 0.000000 0.000000 0.000000 0.000000 0.000000 10.000000 
L_Toe1_02 0.000000 0.000000 0.000000 0.000000 0.000000 0.000000 10.000000 
L_Toe1_03 0.000000 0.000000 0.000000 0.000000 0.000000 0.000000 10.000000 
L_Toe2_02 0.000000 0.000000 0.000000 0.000000 0.000000 0.000000 10.000000 
L_Toe2_03 0.000000 0.000000 0.000000 0.000000 0.000000 0.000000 10.000000 
L_Toe3_02 0.000000 0.000000 0.000000 0.000000 0.000000 0.000000 10.000000 
L_Toe3_03 0.000000 0.000000 0.000000 0.000000 0.000000 0.000000 10.000000 
planeLockWeightLeft 0.000000 0.000000 0.000000 0.000000 0.000000 0.000000 10.000000 
R_Leg01 0.000000 0.000000 0.000000 0.000000 0.000000 0.000000 10.000000 
R_Leg02 0.000000 0.000000 0.000000 0.000000 0.000000 0.000000 10.000000 
R_Leg03 0.000000 0.000000 0.000000 0.000000 0.000000 0.000000 10.000000 
R_Foot 0.000000 0.000000 0.000000 0.000000 0.000000 0.000000 10.000000 
planeAlignerRight 0.000000 0.000000 0.000000 0.000000 0.000000 0.000000 10.000000 
R_Toe1_01 0.000000 0.000000 0.000000 0.000000 0.000000 0.000000 10.000000 
R_Toe2_01 0.000000 0.000000 0.000000 0.000000 0.000000 0.000000 10.000000 
R_Toe3_01 0.000000 0.000000 0.000000 0.000000 0.000000 0.000000 10.000000 
planeLockWeightRight 0.000000 0.000000 0.000000 0.000000 0.000000 0.000000 10.000000 
R_Toe1_02 0.000000 0.000000 0.000000 0.000000 0.000000 0.000000 10.000000 
R_Toe1_03 0.000000 0.000000 0.000000 0.000000 0.000000 0.000000 10.000000 
R_Toe2_02 0.000000 0.000000 0.000000 0.000000 0.000000 0.000000 10.000000 
R_Toe2_03 0.000000 0.000000 0.000000 0.000000 0.000000 0.000000 10.000000 
R_Toe3_02 0.000000 0.000000 0.000000 0.000000 0.000000 0.000000 10.000000 
R_Toe3_03 0.000000 0.000000 0.000000 0.000000 0.000000 0.000000 10.000000 
Rear_Leg02 0.000000 0.000000 0.000000 0.000000 0.000000 0.000000 10.000000 
Rear_Leg03 0.000000 0.000000 0.000000 0.000000 0.000000 0.000000 10.000000 
Rear_Leg04 0.000000 0.000000 0.000000 0.000000 0.000000 0.000000 10.000000 
Rear_Foot 0.000000 0.000000 0.000000 0.000000 0.000000 0.000000 10.000000 
planeAlignerCenter 0.000000 0.000000 0.000000 0.000000 0.000000 0.000000 10.000000 
Rear_Toe1_01 0.000000 0.000000 0.000000 0.000000 0.000000 0.000000 10.000000 
Rear_Toe2_01 0.000000 0.000000 0.000000 0.000000 0.000000 0.000000 10.000000 
Rear_Toe3_01 0.000000 0.000000 0.000000 0.000000 0.000000 0.000000 10.000000 
planeLockWeightCenter 0.000000 0.000000 0.000000 0.000000 0.000000 0.000000 10.000000 
Rear_Toe1_02 0.000000 0.000000 0.000000 0.000000 0.000000 0.000000 10.000000 
Rear_Toe1_03 0.000000 0.000000 0.000000 0.000000 0.000000 0.000000 10.000000 
Rear_Toe2_02 0.000000 0.000000 0.000000 0.000000 0.000000 0.000000 10.000000 
Rear_Toe2_03 0.000000 0.000000 0.000000 0.000000 0.000000 0.000000 10.000000 
Rear_Toe3_02 0.000000 0.000000 0.000000 0.000000 0.000000 0.000000 10.000000 
Rear_Toe3_03 0.000000 0.000000 0.000000 0.000000 0.000000 0.000000 10.000000 
Back_Bone 0.000000 0.000000 0.000000 0.000000 0.000000 0.000000 10.000000 
Head 0.000000 0.000000 0.000000 0.000000 0.000000 0.000000 10.000000 
Motor_Bone 0.000000 0.000000 0.000000 0.000000 0.000000 0.000000 10.000000 
Ping_Mechanism 0.000000 0.000000 0.000000 0.000000 0.000000 0.000000 10.000000 
BN_LookIK 0.000000 0.000000 0.000000 0.000000 0.000000 0.000000 10.000000 
bottomMouth 0.000000 0.000000 0.000000 0.000000 0.000000 0.000000 10.000000 
L_Mouth01 0.000000 0.000000 0.000000 0.000000 0.000000 0.000000 10.000000 
L_mouthFront 0.000000 0.000000 0.000000 0.000000 0.000000 0.000000 10.000000 
mouthGun 0.000000 0.000000 0.000000 0.000000 0.000000 0.000000 10.000000 
R_Mouth01 0.000000 0.000000 0.000000 0.000000 0.000000 0.000000 10.000000 
R_mouthFront 0.000000 0.000000 0.000000 0.000000 0.000000 0.000000 10.000000 
TopMouth 0.000000 0.000000 0.000000 0.000000 0.000000 0.000000 10.000000 
weapon_bone 0.000000 0.000000 0.000000 0.000000 0.000000 0.000000 10.000000 
#Beginning of Data. Separated by tabs
#Fr	Tx	Ty	Tz	Rx	Ry	Rz	SF
[Pinger_Root]
31 0.000000 3888.887939 0.000000 -0.000075 -0.000000 -0.000020 3888.887939
32 0.000000 4018.517578 0.000000 -0.000075 -0.000000 -0.000020 4018.517578
33 0.000000 4148.146973 0.000000 -0.000075 -0.000000 -0.000020 4148.146973
[Pelvis]
31 225.588348 977.125427 5193.368164 52.804169 -76.799690 -29.523117 5289.303711
32 282.665253 979.700073 5221.272949 53.784447 -77.999496 -30.134153 5319.906250
33 335.792725 984.103638 5243.667969 54.940063 -79.196510 -30.921364 5345.771484
[L_Hip]
31 5.766392 125.831482 872.656799 -178.250168 -81.786369 87.376007 881.701050
32 5.766392 125.831482 872.656799 -178.250168 -81.786369 87.376007 881.701050
33 5.766392 125.831482 872.656799 -178.250168 -81.786369 87.376007 881.701050
[R_Hip]
31 5.765438 125.836372 -872.654907 -1.748770 81.786041 87.376961 881.699829
32 5.765438 125.836372 -872.654907 -1.748770 81.786041 87.376961 881.699829
33 5.765438 125.836372 -872.654907 -1.748770 81.786041 87.376961 881.699829
[Rear_Leg01]
31 -192.298416 -925.602966 -0.001907 -160.269775 -6.435410 -156.594467 945.367432
32 -192.298416 -925.602966 -0.001907 -160.492599 -8.647705 -156.505249 945.367432
33 -192.298416 -925.602966 -0.001907 -161.023468 -10.668274 -156.633194 945.367432
[Spine1]
31 290.604584 5.007505 0.000477 -26.666777 5.035338 38.023796 290.647736
32 290.604584 5.007505 0.000477 -26.666639 6.089888 37.428288 290.647736
33 290.604584 5.007505 0.000477 -26.677546 7.144378 36.831509 290.647736
[L_Leg01]
31 761.932007 -0.002384 -0.069261 113.442612 -1.981719 -90.493332 761.932068
32 761.932007 -0.002384 -0.069261 116.203018 -7.047859 -91.739853 761.932068
33 761.932007 -0.002384 -0.069261 117.284332 -18.506439 -93.209076 761.932068
[L_Leg02]
31 1441.140503 -0.000954 -0.000715 -1.368297 0.661136 -106.534370 1441.140503
32 1441.140503 -0.000954 -0.000715 -1.254545 0.628993 -112.845169 1441.140503
33 1441.140503 -0.000954 -0.000715 -0.492806 0.280943 -123.287758 1441.140503
[L_Leg03]
31 1686.963989 -0.000715 -0.000954 0.054318 -0.012785 94.819321 1686.963989
32 1686.963989 -0.000715 -0.000954 0.054267 -0.012998 95.268608 1686.963989
33 1686.963989 -0.000715 -0.000954 0.047039 -0.013534 97.340057 1686.963989
[L_Foot]
31 3041.570068 -30.715107 11.297464 -37.449013 15.084060 49.851494 3041.746094
32 3041.570068 -30.715107 11.297464 -40.142906 14.633672 48.133842 3041.746094
33 3041.570068 -30.715107 11.297464 -40.245911 13.801233 46.975483 3041.746094
[L_Toe1_01]
31 -188.216690 -224.732346 -21.137953 88.110825 0.543034 -116.335129 293.899567
32 -188.216690 -224.732346 -21.137953 88.150635 0.358857 -112.378578 293.899567
33 -188.216690 -224.732346 -21.137953 88.210999 -0.519470 -125.873039 293.899567
[L_Toe2_01]
31 200.746536 -219.926590 148.838394 -74.803802 -9.627950 -60.054234 332.896027
32 200.746536 -219.926590 148.838394 -74.300171 -8.357120 -63.966545 332.896027
33 200.746536 -219.926590 148.838394 -73.694061 -6.533262 -69.434944 332.896027
[L_Toe3_01]
31 188.832520 -219.859131 -191.078659 -109.589897 11.798404 -61.879601 347.140900
32 188.832520 -219.859131 -191.078659 -110.146744 10.218309 -65.598938 347.140900
33 188.832520 -219.859131 -191.078659 -110.855400 7.931682 -70.853951 347.140900
[planeAlignerLeft]
31 -92.458824 -816.481873 7.194966 0.000000 -90.000000 -90.001900 821.731750
32 -82.011185 -814.599304 7.751384 0.000000 -90.000000 -90.001900 818.753845
33 -65.302132 -808.245911 7.227674 0.000000 -90.000000 -90.001900 810.911804
[L_Toe1_02]
31 413.761139 0.000477 0.000000 0.001660 0.021440 0.001660 413.761139
32 413.761139 0.000477 0.000000 0.001416 -21.982801 0.001416 413.761139
33 413.761139 0.000477 0.000000 0.001395 -24.573400 0.001395 413.761139
[L_Toe1_03]
31 464.317322 0.000358 -0.000089 0.001671 -0.408836 -0.003291 464.317322
32 464.317322 0.000358 -0.000089 0.000888 29.326992 -0.003164 464.317322
33 464.317322 0.000358 -0.000089 0.006800 70.123856 0.006800 464.317322
[L_Toe2_02]
31 342.235809 -0.000477 0.000238 0.001184 -74.555931 0.001184 342.235809
32 342.235809 -0.000477 0.000238 0.001182 -76.426025 0.001182 342.235809
33 342.235809 -0.000477 0.000238 0.001180 -77.652336 0.001180 342.235809
[L_Toe2_03]
31 420.210846 -0.000715 0.000000 -179.956268 88.551659 -179.952774 420.210846
32 420.210846 -0.000715 0.000000 -179.993118 82.363831 -179.989624 420.210846
33 420.210846 -0.000715 0.000000 -179.996475 77.517067 -179.992966 420.210846
[L_Toe3_02]
31 329.270111 0.000954 0.000000 0.001180 -78.454506 0.001180 329.270111
32 329.270111 0.000954 0.000000 0.001178 -80.137375 0.001178 329.270111
33 329.270111 0.000954 0.000000 0.001177 -81.279579 0.001177 329.270111
[L_Toe3_03]
31 439.137451 -0.001907 0.000954 -179.986053 85.806839 -179.982529 439.137451
32 439.137451 -0.001907 0.000954 -179.995193 79.947968 -179.991684 439.137451
33 439.137451 -0.001907 0.000954 -179.997269 75.320351 -179.993744 439.137451
[planeLockWeightLeft]
31 -0.000046 0.098022 0.076019 -0.011826 -0.004376 0.005620 0.124046
32 -0.000069 0.097977 0.076035 -0.011826 -0.004376 0.005620 0.124019
33 -0.000092 0.097931 0.076050 -0.011826 -0.004376 0.005620 0.123992
[R_Leg01]
31 761.455627 -0.001907 -0.000358 126.542725 -3.502455 59.783615 761.455688
32 761.455627 -0.001907 -0.000358 128.712509 -1.832454 62.370720 761.455688
33 761.455627 -0.001907 -0.000358 130.673706 -1.137646 64.506104 761.455688
[R_Leg02]
31 1441.140625 0.000000 -0.000238 0.206651 0.024224 -88.554436 1441.140625
32 1441.140625 0.000000 -0.000238 0.210398 0.026060 -87.673515 1441.140625
33 1441.140625 0.000000 -0.000238 0.209671 0.025483 -87.732574 1441.140625
[R_Leg03]
31 1686.963989 0.000954 0.001431 -0.031733 0.010312 101.789940 1686.963989
32 1686.963989 0.000954 0.001431 -0.031207 0.009689 101.854652 1686.963989
33 1686.963989 0.000954 0.001431 -0.030682 0.009066 101.919365 1686.963989
[R_Foot]
31 3041.560059 -30.531288 -11.204481 9.734913 -14.718064 46.948074 3041.734131
32 3041.560059 -30.531288 -11.204481 8.943688 -13.595255 49.185535 3041.734131
33 3041.560059 -30.531288 -11.204481 8.201573 -12.443515 51.396671 3041.734131
[planeAlignerRight]
31 -37.920067 -573.093384 27.969942 0.000000 -89.960434 -90.005180 575.027161
32 -13.089483 -577.086365 26.116518 0.000000 -89.960434 -90.005180 577.825317
33 11.741095 -581.079407 24.263096 0.000000 -89.960434 -90.005180 581.704285
[R_Toe1_01]
31 -188.383347 -224.864899 21.052242 90.722466 0.561701 -166.975708 294.101532
32 -188.383347 -224.864899 21.052242 90.710770 0.676108 -167.686981 294.101532
33 -188.383347 -224.864899 21.052242 90.697632 0.790355 -168.398254 294.101532
[R_Toe2_01]
31 200.637817 -220.002121 -148.787384 -100.879723 12.451764 -39.995327 332.857574
32 200.637817 -220.002121 -148.787384 -100.959221 11.992564 -40.705338 332.857574
33 200.637817 -220.002121 -148.787384 -101.032730 11.532427 -41.413490 332.857574
[R_Toe3_01]
31 188.606735 -220.092957 191.126343 -74.571182 -18.994114 -43.263390 347.192566
32 188.606735 -220.092957 191.126343 -74.573799 -18.228966 -43.597862 347.192566
33 188.606735 -220.092957 191.126343 -74.497231 -17.381977 -44.323494 347.192566
[planeLockWeightRight]
31 999.999634 0.000000 0.076082 -0.011823 -0.004379 -0.000027 999.999634
32 999.999634 0.000000 0.076092 -0.011823 -0.004379 -0.000027 999.999634
33 999.999634 0.000000 0.076101 -0.011823 -0.004379 -0.000027 999.999634
[R_Toe1_02]
31 413.762085 0.000477 -0.000119 0.001410 -22.724047 0.001410 413.762085
32 413.762085 0.000477 -0.000119 0.001416 -21.997307 0.001416 413.762085
33 413.762085 0.000477 -0.000119 0.001422 -21.270540 0.001422 413.762085
[R_Toe1_03]
31 464.317810 0.000000 0.001088 0.013185 79.786720 0.013185 464.317810
32 464.317810 0.000000 0.001088 0.004140 83.152405 0.005892 464.317810
33 464.317810 0.000000 0.001088 -0.020666 86.517830 -0.017167 464.317810
[R_Toe2_02]
31 342.234741 -0.000954 0.000238 -0.002333 -79.254845 -0.002333 342.234741
32 342.234741 -0.000954 0.000238 -0.002335 -78.535095 -0.002335 342.234741
33 342.234741 -0.000954 0.000238 -0.002336 -77.815308 -0.002336 342.234741
[R_Toe2_03]
31 420.210846 0.000715 -0.000268 -179.995178 68.303505 -179.998718 420.210846
32 420.210846 0.000715 -0.000268 -179.994522 72.112656 -179.998062 420.210846
33 420.210846 0.000715 -0.000268 -179.993546 75.926025 -179.997070 420.210846
[R_Toe3_02]
31 329.270355 -0.000477 -0.000954 0.001176 -82.411957 0.001176 329.270355
32 329.270355 -0.000477 -0.000954 0.001177 -81.738487 0.001177 329.270355
33 329.270355 -0.000477 -0.000954 0.001177 -81.064987 0.001177 329.270355
[R_Toe3_03]
31 439.137939 0.000238 0.001431 -179.998535 69.575249 -179.994980 439.137939
32 439.137939 0.000238 0.001431 -179.997910 72.890137 -179.994370 439.137939
33 439.137939 0.000238 0.001431 -179.996979 76.207794 -179.993454 439.137939
[Rear_Leg02]
31 1162.777710 -0.029802 0.005960 -5.214734 9.915998 -125.580254 1162.777710
32 1162.777710 -0.029802 0.005960 -4.063860 9.992390 -119.782845 1162.777710
33 1162.777710 -0.029802 0.005960 -2.913823 9.954118 -113.999100 1162.777710
[Rear_Leg03]
31 607.192505 -0.013351 -0.073195 0.010395 -0.005301 70.390297 607.192505
32 607.192505 -0.013351 -0.073195 0.009466 -0.004429 68.431854 607.192505
33 607.192505 -0.013351 -0.073195 0.008507 -0.003589 66.472244 607.192505
[Rear_Leg04]
31 995.874512 -0.020504 -0.011921 -0.043088 -0.018196 71.366081 995.874573
32 995.874512 -0.020504 -0.011921 -0.042056 -0.018088 67.246025 995.874573
33 995.874512 -0.020504 -0.011921 -0.041031 -0.017905 63.109871 995.874573
[Rear_Foot]
31 3096.176270 -0.067472 -0.041425 112.200584 79.201218 -66.382278 3096.176270
32 3096.176270 -0.067472 -0.041425 117.601021 79.179565 -59.431061 3096.176270
33 3096.176270 -0.067472 -0.041425 122.905281 79.036316 -52.576672 3096.176270
[planeAlignerCenter]
31 1.030903 62.893944 -768.247986 0.000009 0.000003 -179.999985 770.818848
32 1.029965 66.902992 -754.519409 0.000009 0.000003 -179.999985 757.480469
33 1.029027 70.912025 -740.790894 0.000009 0.000003 -179.999985 744.177856
[Rear_Toe1_01]
31 0.653352 83.966492 -371.173737 0.065242 25.924833 90.031303 380.553192
32 0.653352 83.966492 -371.173737 0.062959 25.077475 90.030609 380.553192
33 0.653352 83.966492 -371.173737 0.060706 24.230124 90.029968 380.553192
[Rear_Toe2_01]
31 178.200760 -294.826019 -362.060547 0.874129 51.153610 -70.183029 499.765686
32 178.200760 -294.826019 -362.060547 0.913482 50.278770 -70.077492 499.765686
33 178.200760 -294.826019 -362.060547 0.949652 49.403847 -69.974754 499.765686
[Rear_Toe3_01]
31 -153.359680 -308.780914 -362.060852 -1.135623 51.138535 -112.276726 499.952881
32 -153.359680 -308.780914 -362.060852 -1.174278 50.267166 -112.391212 499.952881
33 -153.359680 -308.780914 -362.060852 -1.209572 49.395695 -112.502747 499.952881
[planeLockWeightCenter]
31 1000.000488 0.000363 0.076241 -0.011814 -0.004373 -0.000015 1000.000488
32 1000.000366 0.000359 0.076244 -0.011814 -0.004373 -0.000015 1000.000366
33 1000.000366 0.000355 0.076247 -0.011814 -0.004373 -0.000015 1000.000366
[Rear_Toe1_02]
31 379.707825 0.194073 0.000477 -0.000767 -33.624729 0.000838 379.707855
32 379.707825 0.194073 0.000477 -0.000767 -33.624729 0.000838 379.707855
33 379.707825 0.194073 0.000477 -0.000767 -33.624729 0.000838 379.707855
[Rear_Toe1_03]
31 500.129700 0.165701 0.000119 -0.000355 69.788101 0.001776 500.129761
32 500.129700 0.165701 0.000119 0.002049 70.201096 0.003469 500.129761
33 500.129700 0.165701 0.000119 0.004539 70.614052 0.005249 500.129761
[Rear_Toe2_02]
31 340.494507 0.000238 -0.000954 0.001177 -81.953217 0.001177 340.494507
32 340.494507 0.000238 -0.000954 0.001176 -82.870079 0.001176 340.494507
33 340.494507 0.000238 -0.000954 0.001175 -83.786499 0.001175 340.494507
[Rear_Toe2_03]
31 433.103577 0.000000 0.000238 179.928726 88.110420 179.928726 433.103546
32 433.103577 0.000000 0.000238 179.965225 86.129150 179.965225 433.103546
33 433.103577 0.000000 0.000238 179.977005 84.150284 179.977005 433.103546
[Rear_Toe3_02]
31 340.494141 -0.000358 -0.000477 0.001177 -81.863052 0.001177 340.494171
32 340.494141 -0.000358 -0.000477 0.001176 -82.778519 0.001176 340.494171
33 340.494141 -0.000358 -0.000477 0.001175 -83.693512 0.001175 340.494171
[Rear_Toe3_03]
31 433.103577 0.001431 -0.000238 -179.962250 88.330948 -179.958755 433.103546
32 433.103577 0.001431 -0.000238 -179.983643 86.359161 -179.980148 433.103546
33 433.103577 0.001431 -0.000238 -179.990005 84.390457 -179.986511 433.103546
[Back_Bone]
31 1312.175781 -701.934692 0.000954 2.870127 0.499462 -84.636963 1488.125488
32 1312.175781 -701.934692 0.000954 2.883559 1.259011 -84.453972 1488.125488
33 1312.175781 -701.934692 0.000954 2.899423 2.018476 -84.270721 1488.125488
[Head]
31 1406.159424 809.709290 0.001431 3.206423 -2.251501 1.435200 1622.625488
32 1406.159424 809.709290 0.001431 3.525458 -2.195737 0.973370 1622.625488
33 1406.159424 809.709290 0.001431 3.675296 -1.962880 0.615051 1622.625488
[Motor_Bone]
31 1158.364380 -417.834747 0.000477 -1.440882 0.000167 -105.983208 1231.419434
32 1158.364380 -417.834747 0.000477 -1.029635 1.419330 -104.575363 1231.419434
33 1158.364380 -417.834747 0.000477 -0.583231 2.827924 -103.156067 1231.419434
[Ping_Mechanism]
31 1194.086548 -406.520569 54.755009 0.000103 -0.000053 82.120995 1262.576660
32 1194.655762 -408.745483 49.356476 0.000103 -0.000053 82.120995 1263.610474
33 1195.224854 -410.970428 43.957947 0.000103 -0.000053 82.120995 1264.670532
[BN_LookIK]
31 193.241119 1380.371704 -0.002861 0.000000 89.965736 -31.038179 1393.832153
32 193.241119 1380.371704 -0.002861 0.000000 89.965736 -31.038179 1393.832153
33 193.241119 1380.371704 -0.002861 0.000000 89.965736 -31.038179 1393.832153
[bottomMouth]
31 -435.092926 615.759399 -0.000954 -0.000022 0.000016 73.527184 753.966492
32 -435.092926 615.759399 -0.000954 -0.000022 0.000016 73.527184 753.966492
33 -435.092926 615.759399 -0.000954 -0.000022 0.000016 73.527184 753.966492
[L_Mouth01]
31 554.440979 7.658243 838.222046 150.204178 23.759130 109.605339 1005.027161
32 554.440979 7.658243 838.222046 150.204178 23.759130 109.605339 1005.027161
33 554.440979 7.658243 838.222046 150.204178 23.759130 109.605339 1005.027161
[L_mouthFront]
31 551.629089 934.514771 339.150421 0.000081 2.804060 79.119301 1136.941284
32 551.629089 934.514771 339.150421 0.000081 2.804060 79.119301 1136.941284
33 551.629089 934.514771 339.150421 0.000081 2.804060 79.119301 1136.941284
[mouthGun]
31 55.332661 1627.420898 0.000000 0.000023 0.000009 -11.038128 1628.361328
32 55.332661 1627.420898 0.000000 0.000023 0.000009 -11.038128 1628.361328
33 55.332661 1627.420898 0.000000 0.000023 0.000009 -11.038128 1628.361328
[R_Mouth01]
31 554.442383 7.659197 -838.223938 29.795891 -23.759109 109.605331 1005.029541
32 554.442383 7.659197 -838.223938 29.795891 -23.759109 109.605331 1005.029541
33 554.442383 7.659197 -838.223938 29.795891 -23.759109 109.605331 1005.029541
[R_mouthFront]
31 551.629089 934.514282 -339.151367 0.000029 -2.803930 79.119133 1136.941162
32 551.629089 934.514282 -339.151367 0.000029 -2.803930 79.119133 1136.941162
33 551.629089 934.514282 -339.151367 0.000029 -2.803930 79.119133 1136.941162
[TopMouth]
31 461.269867 -56.106091 -0.008583 -0.000059 -0.000268 92.025169 464.669525
32 461.269867 -56.106091 -0.008583 -0.000059 -0.000268 92.025169 464.669525
33 461.269867 -56.106091 -0.008583 -0.000059 -0.000268 92.025169 464.669525
[weapon_bone]
31 -987.239868 1448.372803 0.001431 0.000000 89.965736 -31.038221 1752.833740
32 -987.239868 1448.372803 0.001431 0.000000 89.965736 -31.038221 1752.833740
33 -987.239868 1448.372803 0.001431 0.000000 89.965736 -31.038221 1752.833740
